<svg width="81" height="20" viewBox="0 0 81 20" fill="none" xmlns="http://www.w3.org/2000/svg">
<path d="M21.0246 6.96338H29.1249V8.47468H25.9399V16.9704H24.1885V8.47468H21.0176V6.96338H21.0246ZM28.7789 9.72468H30.2761V11.123H30.3043C30.3537 10.9252 30.4455 10.7346 30.5797 10.5509C30.7139 10.3673 30.8763 10.1908 31.067 10.0425C31.2577 9.8871 31.4696 9.76705 31.7026 9.66818C31.9357 9.57637 32.1758 9.52694 32.4159 9.52694C32.5995 9.52694 32.7337 9.534 32.8043 9.54106C32.8749 9.54812 32.9455 9.56225 33.0232 9.56931V11.1089C32.9102 11.0877 32.7972 11.0735 32.6772 11.0594C32.5571 11.0453 32.4441 11.0382 32.3311 11.0382C32.0628 11.0382 31.8085 11.0947 31.5684 11.2007C31.3283 11.3066 31.1235 11.469 30.947 11.6738C30.7704 11.8857 30.6292 12.1399 30.5232 12.4507C30.4173 12.7614 30.3679 13.1145 30.3679 13.517V16.9634H28.7718V9.72468H28.7789ZM40.3608 16.9704H38.793V15.9605H38.7648C38.567 16.3278 38.2775 16.6173 37.889 16.8362C37.5006 17.0552 37.1051 17.1682 36.7026 17.1682C35.7492 17.1682 35.0571 16.9351 34.6334 16.462C34.2097 15.9888 33.9978 15.2755 33.9978 14.3221V9.72468H35.5938V14.1668C35.5938 14.8024 35.7139 15.2543 35.9611 15.5156C36.2012 15.7769 36.5472 15.9111 36.9851 15.9111C37.3241 15.9111 37.5995 15.8617 37.8255 15.7557C38.0515 15.6498 38.2351 15.5156 38.3693 15.3391C38.5105 15.1696 38.6094 14.9577 38.6729 14.7176C38.7365 14.4775 38.7648 14.2162 38.7648 13.9337V9.73174H40.3608V16.9704ZM43.0797 14.647C43.1292 15.1131 43.3057 15.4379 43.6094 15.6286C43.9201 15.8122 44.2874 15.9111 44.7181 15.9111C44.8664 15.9111 45.0359 15.897 45.2266 15.8758C45.4173 15.8546 45.6009 15.8052 45.7633 15.7416C45.9328 15.6781 46.067 15.5792 46.18 15.4521C46.2859 15.325 46.3354 15.1625 46.3283 14.9577C46.3212 14.7529 46.2436 14.5834 46.1023 14.4563C45.9611 14.3221 45.7845 14.2233 45.5656 14.1385C45.3467 14.0608 45.0995 13.9902 44.817 13.9337C44.5345 13.8772 44.252 13.8137 43.9625 13.7501C43.6659 13.6865 43.3763 13.6018 43.1009 13.51C42.8255 13.4182 42.5783 13.2911 42.3594 13.1286C42.1405 12.9733 41.9639 12.7685 41.8368 12.5213C41.7026 12.2741 41.639 11.9704 41.639 11.6032C41.639 11.2077 41.7379 10.8829 41.9286 10.6145C42.1193 10.3461 42.3664 10.1343 42.656 9.97185C42.9526 9.80942 43.2775 9.69643 43.6376 9.62581C43.9978 9.56225 44.3438 9.52694 44.6687 9.52694C45.043 9.52694 45.4032 9.56931 45.7422 9.64699C46.0811 9.72468 46.3919 9.85179 46.6673 10.0354C46.9427 10.212 47.1687 10.445 47.3523 10.7275C47.5359 11.01 47.6489 11.356 47.6984 11.7586H46.0317C45.954 11.3772 45.7845 11.1159 45.5091 10.9888C45.2337 10.8546 44.9159 10.7911 44.5628 10.7911C44.4498 10.7911 44.3156 10.7981 44.1602 10.8193C44.0049 10.8405 43.8636 10.8758 43.7224 10.9252C43.5882 10.9747 43.4752 11.0524 43.3763 11.1512C43.2845 11.2501 43.2351 11.3772 43.2351 11.5396C43.2351 11.7374 43.3057 11.8928 43.4399 12.0128C43.5741 12.1329 43.7506 12.2317 43.9696 12.3165C44.1885 12.3942 44.4357 12.4648 44.7181 12.5213C45.0006 12.5778 45.2902 12.6413 45.5868 12.7049C45.8763 12.7685 46.1588 12.8532 46.4413 12.945C46.7238 13.0368 46.971 13.1639 47.1899 13.3264C47.4088 13.4888 47.5854 13.6865 47.7196 13.9266C47.8537 14.1668 47.9244 14.4704 47.9244 14.8235C47.9244 15.2543 47.8255 15.6145 47.6277 15.9182C47.43 16.2148 47.1758 16.462 46.865 16.6456C46.5543 16.8292 46.2012 16.9704 45.8198 17.0552C45.4385 17.1399 45.0571 17.1823 44.6828 17.1823C44.2238 17.1823 43.8001 17.1329 43.4116 17.0269C43.0232 16.921 42.6842 16.7656 42.4018 16.5608C42.1193 16.349 41.8933 16.0877 41.7309 15.7769C41.5684 15.4662 41.4837 15.0919 41.4696 14.6611H43.0797V14.647ZM48.3481 9.72468H49.5557V7.54954H51.1518V9.72468H52.5924V10.9182H51.1518V14.7882C51.1518 14.9577 51.1588 15.099 51.1729 15.2261C51.1871 15.3461 51.2224 15.4521 51.2718 15.5368C51.3212 15.6216 51.3989 15.6851 51.5049 15.7275C51.6108 15.7699 51.745 15.7911 51.9286 15.7911C52.0416 15.7911 52.1546 15.7911 52.2676 15.784C52.3806 15.7769 52.4936 15.7628 52.6066 15.7346V16.9704C52.43 16.9916 52.2535 17.0057 52.091 17.0269C51.9215 17.0481 51.752 17.0552 51.5755 17.0552C51.1518 17.0552 50.8128 17.0128 50.5585 16.9351C50.3043 16.8574 50.0995 16.7374 49.9583 16.582C49.81 16.4266 49.7181 16.236 49.6616 16.0029C49.6122 15.7699 49.5769 15.5015 49.5698 15.2049V10.9323H48.3622V9.72468H48.3481ZM53.7224 9.72468H55.2337V10.7063H55.2619C55.4879 10.2826 55.7986 9.98597 56.2012 9.80236C56.6037 9.61874 57.0345 9.52694 57.5077 9.52694C58.0797 9.52694 58.5741 9.62581 58.9978 9.83061C59.4215 10.0283 59.7746 10.3038 60.0571 10.6569C60.3396 11.01 60.5444 11.4196 60.6857 11.8857C60.8269 12.3518 60.8975 12.8532 60.8975 13.3829C60.8975 13.8702 60.834 14.3433 60.7068 14.7953C60.5797 15.2543 60.389 15.6569 60.1348 16.01C59.8806 16.3631 59.5557 16.6385 59.1602 16.8504C58.7648 17.0622 58.3057 17.1682 57.769 17.1682C57.5359 17.1682 57.3029 17.147 57.0698 17.1046C56.8368 17.0622 56.6108 16.9916 56.3989 16.8998C56.1871 16.808 55.9823 16.6879 55.8057 16.5396C55.6221 16.3913 55.4738 16.2218 55.3467 16.0312H55.3184V19.647H53.7224V9.72468ZM59.3015 13.3546C59.3015 13.0298 59.2591 12.712 59.1744 12.4012C59.0896 12.0905 58.9625 11.8221 58.793 11.582C58.6235 11.3419 58.4116 11.1512 58.1645 11.01C57.9102 10.8687 57.6207 10.7911 57.2958 10.7911C56.6249 10.7911 56.1164 11.0241 55.7775 11.4902C55.4385 11.9563 55.269 12.5778 55.269 13.3546C55.269 13.7218 55.3114 14.0608 55.4032 14.3716C55.495 14.6823 55.6221 14.9507 55.8057 15.1766C55.9823 15.4026 56.1941 15.5792 56.4413 15.7063C56.6885 15.8405 56.978 15.904 57.3029 15.904C57.6701 15.904 57.9738 15.8264 58.228 15.6781C58.4823 15.5298 58.6871 15.332 58.8495 15.099C59.0119 14.8589 59.132 14.5905 59.2026 14.2868C59.2662 13.9831 59.3015 13.6724 59.3015 13.3546ZM62.1193 6.96338H63.7153V8.47468H62.1193V6.96338ZM62.1193 9.72468H63.7153V16.9704H62.1193V9.72468ZM65.1419 6.96338H66.7379V16.9704H65.1419V6.96338ZM71.632 17.1682C71.0529 17.1682 70.5374 17.0693 70.0854 16.8786C69.6334 16.6879 69.252 16.4196 68.9342 16.0877C68.6235 15.7487 68.3834 15.3461 68.221 14.88C68.0585 14.4139 67.9738 13.8984 67.9738 13.3405C67.9738 12.7896 68.0585 12.2812 68.221 11.8151C68.3834 11.349 68.6235 10.9464 68.9342 10.6074C69.245 10.2685 69.6334 10.0072 70.0854 9.81648C70.5374 9.62581 71.0529 9.52694 71.632 9.52694C72.2111 9.52694 72.7266 9.62581 73.1786 9.81648C73.6306 10.0072 74.0119 10.2755 74.3297 10.6074C74.6405 10.9464 74.8806 11.349 75.043 11.8151C75.2054 12.2812 75.2902 12.7896 75.2902 13.3405C75.2902 13.8984 75.2054 14.4139 75.043 14.88C74.8806 15.3461 74.6405 15.7487 74.3297 16.0877C74.019 16.4266 73.6306 16.6879 73.1786 16.8786C72.7266 17.0693 72.2111 17.1682 71.632 17.1682ZM71.632 15.904C71.9851 15.904 72.2958 15.8264 72.5571 15.6781C72.8184 15.5298 73.0303 15.332 73.1998 15.0919C73.3693 14.8518 73.4893 14.5764 73.5741 14.2727C73.6518 13.969 73.6941 13.6583 73.6941 13.3405C73.6941 13.0298 73.6518 12.7261 73.5741 12.4154C73.4964 12.1046 73.3693 11.8363 73.1998 11.5961C73.0303 11.356 72.8184 11.1654 72.5571 11.017C72.2958 10.8687 71.9851 10.7911 71.632 10.7911C71.2789 10.7911 70.9681 10.8687 70.7068 11.017C70.4455 11.1654 70.2337 11.3631 70.0642 11.5961C69.8947 11.8363 69.7746 12.1046 69.6899 12.4154C69.6122 12.7261 69.5698 13.0298 69.5698 13.3405C69.5698 13.6583 69.6122 13.969 69.6899 14.2727C69.7676 14.5764 69.8947 14.8518 70.0642 15.0919C70.2337 15.332 70.4455 15.5298 70.7068 15.6781C70.9681 15.8334 71.2789 15.904 71.632 15.904ZM75.7563 9.72468H76.9639V7.54954H78.56V9.72468H80.0006V10.9182H78.56V14.7882C78.56 14.9577 78.567 15.099 78.5811 15.2261C78.5953 15.3461 78.6306 15.4521 78.68 15.5368C78.7294 15.6216 78.8071 15.6851 78.9131 15.7275C79.019 15.7699 79.1532 15.7911 79.3368 15.7911C79.4498 15.7911 79.5628 15.7911 79.6758 15.784C79.7888 15.7769 79.9018 15.7628 80.0148 15.7346V16.9704C79.8382 16.9916 79.6616 17.0057 79.4992 17.0269C79.3297 17.0481 79.1602 17.0552 78.9837 17.0552C78.56 17.0552 78.221 17.0128 77.9667 16.9351C77.7125 16.8574 77.5077 16.7374 77.3664 16.582C77.2181 16.4266 77.1263 16.236 77.0698 16.0029C77.0204 15.7699 76.9851 15.5015 76.978 15.2049V10.9323H75.7704V9.72468H75.7563Z" fill="#191919"/>
<path d="M19.1596 6.96328H11.8432L9.58333 0L7.31638 6.96328L0 6.95621L5.92514 11.2641L3.65819 18.2203L9.58333 13.9195L15.5014 18.2203L13.2415 11.2641L19.1596 6.96328Z" fill="#00B67A"/>
<path d="M13.7487 12.839L13.2402 11.2642L9.58203 13.9195L13.7487 12.839Z" fill="#005128"/>
</svg>
